P3
5 5
256
0 0 255 0 0 255 0 0 255 0 0 255 0 0 0 
0 0 255 0 0 0  0 0 0  0 0 0  0 0 255
0 0 255 0 0 255 0 0 255 0 0 255 0 0 255
0 0 255 0 0 0  0 0 0  0 0 0  0 0 255
0 0 255 0 0 255 0 0 255 0 0 255 0 0 0 
