P2
19 22
183
0 0 0 0 0 0 0 0 0 0 0 0 0 0 0 0 0 0 0
0 0 0 0 0 0 0 0 0 0 0 0 0 0 0 0 0 0 0
0 0 0 0 2 0 0 0 0 0 0 0 0 0 0 0 0 0 0
0 0 0 0 2 0 0 0 0 0 0 0 0 0 0 0 0 0 0
0 0 0 0 0 1 0 0 0 0 0 0 0 0 0 0 0 0 0
0 4 0 0 0 0 10 0 0 0 0 0 0 0 0 0 0 0 0
0 4 4 4 0 0 10 10 10 0 0 0 0 0 0 0 0 0 0
0 0 0 0 0 0 0 0 10 0 0 0 0 0 0 0 0 0 0
0 0 0 0 0 0 10 10 10 10 0 0 0 0 0 0 0 0 0
0 0 0 0 0 0 10 0 0 0 0 0 0 0 0 0 0 0 0
0 0 0 0 0 0 0 0 0 0 0 0 0 0 0 0 0 0 0
0 0 0 0 0 0 0 0 0 0 0 0 0 0 0 0 0 0 0
0 0 0 0 0 0 0 5 5 5 5 5 0 0 0 0 0 0 0
0 0 0 0 0 0 0 0 0 0 0 0 0 0 0 0 0 0 0
0 0 0 0 0 0 0 29 29 0 29 29 0 0 0 0 0 0 0
0 0 0 0 0 0 0 0 29 0 29 0 0 0 0 0 0 0 0
0 0 0 0 0 29 29 29 29 29 29 29 0 0 0 0 0 0 0
0 0 0 0 0 0 29 0 0 0 0 0 0 0 0 0 0 0 0
0 29 0 0 0 0 29 29 29 0 0 0 0 0 0 0 0 0 0
0 29 0 0 0 0 0 0 29 0 0 0 0 0 0 0 0 0 0
0 29 29 29 29 29 29 29 29 29 0 0 0 0 0 0 0 0 0
0 0 0 0 0 0 0 0 0 0 0 0 0 0 0 0 0 0 0
